<svg xmlns="http://www.w3.org/2000/svg" xmlns:xlink="http://www.w3.org/1999/xlink" xmlns:lucid="lucid" width="2202" height="1161"><g transform="translate(-1578 -1100)" lucid:page-tab-id="HWEp-vi-RSFO"><path d="M0 0h6424.55v7946.56H0z" fill="#fff"/><path d="M1640 1346a6 6 0 0 1 6-6h408a6 6 0 0 1 6 6v147a6 6 0 0 1-6 6h-408a6 6 0 0 1-6-6z" fill="none"/><use xlink:href="#a" transform="matrix(1,0,0,1,1640,1340) translate(0 14.4)"/><use xlink:href="#b" transform="matrix(1,0,0,1,1640,1340) translate(0 36)"/><use xlink:href="#c" transform="matrix(1,0,0,1,1640,1340) translate(0 57.06666666666667)"/><use xlink:href="#d" transform="matrix(1,0,0,1,1640,1340) translate(52.000000000000014 57.06666666666667)"/><use xlink:href="#e" transform="matrix(1,0,0,1,1640,1340) translate(0 77.86666666666667)"/><use xlink:href="#f" transform="matrix(1,0,0,1,1640,1340) translate(18.248148148148154 77.86666666666667)"/><use xlink:href="#g" transform="matrix(1,0,0,1,1640,1340) translate(0 98.66666666666669)"/><use xlink:href="#h" transform="matrix(1,0,0,1,1640,1340) translate(24.988888888888894 98.66666666666669)"/><use xlink:href="#i" transform="matrix(1,0,0,1,1640,1340) translate(0 119.4666666666667)"/><use xlink:href="#j" transform="matrix(1,0,0,1,1640,1340) translate(38.518518518518526 119.4666666666667)"/><use xlink:href="#k" transform="matrix(1,0,0,1,1640,1340) translate(0 140.2666666666667)"/><use xlink:href="#l" transform="matrix(1,0,0,1,1640,1340) translate(27.92592592592593 140.2666666666667)"/><use xlink:href="#b" transform="matrix(1,0,0,1,1640,1340) translate(0 161.60000000000005)"/><use xlink:href="#m" transform="matrix(1,0,0,1,1640,1340) translate(0 183.20000000000005)"/><path d="M1640 1186a6 6 0 0 1 6-6h2068a6 6 0 0 1 6 6v96a6 6 0 0 1-6 6H1646a6 6 0 0 1-6-6z" fill="none"/><use xlink:href="#n" transform="matrix(1,0,0,1,1640,1180) translate(732.142592592593 64.26666666666665)"/><use xlink:href="#o" transform="matrix(1,0,0,1,1640,1180) translate(832.527777777778 64.26666666666665)"/><use xlink:href="#p" transform="matrix(1,0,0,1,1640,1180) translate(1023.3166666666667 64.26666666666665)"/><use xlink:href="#q" transform="matrix(1,0,0,1,1640,1180) translate(1208.4018518518517 64.26666666666665)"/><path d="M2347.52 2110a6 6 0 0 1 6-6h208a6 6 0 0 1 6 6v85a6 6 0 0 1-6 6h-208a6 6 0 0 1-6-6z" stroke="#4881b3" stroke-width="3" fill="#f5fbff"/><path d="M2347.52 2141.6h220" stroke="#4881b3" stroke-width="3" fill="none"/><use xlink:href="#r" transform="matrix(1,0,0,1,2355.5212324808545,2112) translate(39.625 14.6)"/><path d="M2900 2110a6 6 0 0 1 6-6h348a6 6 0 0 1 6 6v85a6 6 0 0 1-6 6h-348a6 6 0 0 1-6-6z" stroke="#4881b3" stroke-width="3" fill="#f5fbff"/><path d="M2900 2141.6h360" stroke="#4881b3" stroke-width="3" fill="none"/><use xlink:href="#s" transform="matrix(1,0,0,1,2908,2112) translate(142.575 14.6)"/><path d="M2737.78 2165.7H2690l-119.98.02v-2l120-.02h47.76zm159.72 0h-62.57v-2h62.57z" stroke="#224c72" stroke-width=".05" fill="#224c72"/><path d="M2898.5 2165.7h-1.03v-2h1.03z" fill="#224c72"/><path d="M2898.53 2165.72h-1.08v-2.04h1.08zm-1.03-2v1.96h.97v-1.95z" stroke="#224c72" stroke-width=".05" fill="#224c72"/><path d="M2570.05 2165.72h-1.03v-2h1.03z" fill="#224c72"/><path d="M2570.07 2165.75H2569v-2.05h1.07zm-1.02-2v1.95h.97v-1.95z" stroke="#224c72" stroke-width=".05" fill="#224c72"/><use xlink:href="#t" transform="matrix(1,0,0,1,2858.115780833927,2139.1002719173225) translate(0.005000000000000782 14.4)"/><use xlink:href="#u" transform="matrix(1,0,0,1,2584.159519580215,2139.1214675669794) translate(0.004999999999999893 14.4)"/><use xlink:href="#v" transform="matrix(1,0,0,1,2737.7842865606003,2153.9002719173222) translate(0.005000000000002558 14.4)"/><path d="M3080 1800.98v300.52" stroke="#224c72" stroke-width="2" fill="none"/><path d="M3080 1778.46l12.73 21.52h-25.46z" stroke="#224c72" stroke-width="2" fill="#fff"/><path d="M3081 2102.5h-2v-1.03h2z" stroke="#224c72" stroke-width=".05" fill="#224c72"/><path d="M2900 1663a6 6 0 0 1 6-6h348a6 6 0 0 1 6 6v106a6 6 0 0 1-6 6h-348a6 6 0 0 1-6-6z" stroke="#4881b3" stroke-width="3" fill="#f5fbff"/><path d="M2900 1694.6h360" stroke="#4881b3" stroke-width="3" fill="none"/><use xlink:href="#w" transform="matrix(1,0,0,1,2908,1665) translate(121.125 14.6)"/><use xlink:href="#x" transform="matrix(1,0,0,1,2912,1702.6) translate(129.575 36.1)"/><use xlink:href="#y" transform="matrix(1,0,0,1,2912,1702.6) translate(140.52499999999998 36.1)"/><path d="M2314 1526a6 6 0 0 1 6-6h348a6 6 0 0 1 6 6v106a6 6 0 0 1-6 6h-348a6 6 0 0 1-6-6z" stroke="#4881b3" stroke-width="3" fill="#f5fbff"/><path d="M2314 1557.6h360" stroke="#4881b3" stroke-width="3" fill="none"/><use xlink:href="#z" transform="matrix(1,0,0,1,2322,1528) translate(113.77499999999999 14.6)"/><use xlink:href="#A" transform="matrix(1,0,0,1,2326,1565.6) translate(148.5861111111111 25.699999999999996)"/><use xlink:href="#B" transform="matrix(1,0,0,1,2326,1565.6) translate(159.5361111111111 25.699999999999996)"/><use xlink:href="#C" transform="matrix(1,0,0,1,2326,1565.6) translate(124.76296296296294 46.766666666666666)"/><use xlink:href="#D" transform="matrix(1,0,0,1,2326,1565.6) translate(135.3074074074074 46.766666666666666)"/><path d="M2556 1722.16l.07.82.18.76.3.73.4.67.52.6.6.5.66.4.73.3.76.2.82.06h20.05v2h-20.14l-1.06-.1-1.06-.24-1.02-.42-.94-.58-.83-.7-.72-.85-.57-.92-.42-1.02-.26-1.07-.08-1.06v-81.74h2zm341.5 5.04v2h-236.6v-2z" stroke="#224c72" stroke-width=".05" fill="#224c72"/><path d="M2898.5 1729.2h-1.03v-2h1.03z" fill="#224c72"/><path d="M2898.53 1729.22h-1.08v-2.05h1.08zm-1.03-2v1.95h.97v-1.95z" stroke="#224c72" stroke-width=".05" fill="#224c72"/><path d="M2556 1640.53h-2v-1.03h2z" fill="#224c72"/><path d="M2556.03 1640.55h-2.06v-1.08h2.06zm-2-1.02v.97h1.94v-.97z" stroke="#224c72" stroke-width=".05" fill="#224c72"/><use xlink:href="#u" transform="matrix(1,0,0,1,2536.9999935344636,1653.6631371742512) translate(0.004999999999999893 14.4)"/><use xlink:href="#u" transform="matrix(1,0,0,1,2870.6171238636625,1732.1985491496544) translate(0.004999999999999893 14.4)"/><use xlink:href="#E" transform="matrix(1,0,0,1,2581.0851851851853,1717.7985491496543) translate(0.005000000000002558 13.866666666666669)"/><path d="M2902 1346a6 6 0 0 1 6-6h348a6 6 0 0 1 6 6v128a6 6 0 0 1-6 6h-348a6 6 0 0 1-6-6z" stroke="#4881b3" stroke-width="3" fill="#f5fbff"/><path d="M2902 1377.6h360" stroke="#4881b3" stroke-width="3" fill="none"/><use xlink:href="#F" transform="matrix(1,0,0,1,2910,1348) translate(135.525 14.6)"/><use xlink:href="#x" transform="matrix(1,0,0,1,2914,1385.6) translate(135.55 36.3)"/><use xlink:href="#G" transform="matrix(1,0,0,1,2914,1385.6) translate(146.5 36.3)"/><use xlink:href="#x" transform="matrix(1,0,0,1,2914,1385.6) translate(128.05 57.9)"/><use xlink:href="#H" transform="matrix(1,0,0,1,2914,1385.6) translate(139 57.9)"/><path d="M3081 1568.5v86h-2v-108.27h2zm0-43.07h-2v-42.93h2z" stroke="#224c72" stroke-width=".05" fill="#224c72"/><path d="M3081 1655.5h-2v-1.03h2z" fill="#224c72"/><path d="M3081.03 1655.53h-2.06v-1.08h2.06zm-2-1.03v.97h1.94v-.97z" stroke="#224c72" stroke-width=".05" fill="#224c72"/><path d="M3081 1482.53h-2v-1.03h2z" fill="#224c72"/><path d="M3081.02 1482.55h-2.05v-1.08h2.05zm-2-1.02v.97h1.95v-.97z" stroke="#224c72" stroke-width=".05" fill="#224c72"/><use xlink:href="#u" transform="matrix(1,0,0,1,3087.9911918647344,1487.6656084073263) translate(0.004999999999999893 14.4)"/><use xlink:href="#t" transform="matrix(1,0,0,1,3088,1628.6066329966973) translate(0.005000000000000782 14.4)"/><use xlink:href="#I" transform="matrix(1,0,0,1,3035.718969642512,1525.4265485109556) translate(0.005000000000002558 13.866666666666669)"/><path d="M3360 1666a6 6 0 0 1 6-6h348a6 6 0 0 1 6 6v106a6 6 0 0 1-6 6h-348a6 6 0 0 1-6-6z" stroke="#4881b3" stroke-width="3" fill="#f5fbff"/><path d="M3360 1697.6h360" stroke="#4881b3" stroke-width="3" fill="none"/><use xlink:href="#J" transform="matrix(1,0,0,1,3368,1668) translate(88.70000000000002 14.6)"/><use xlink:href="#x" transform="matrix(1,0,0,1,3372,1705.6) translate(129.575 36.1)"/><use xlink:href="#y" transform="matrix(1,0,0,1,3372,1705.6) translate(140.52499999999998 36.1)"/><path d="M3540 1657.5V1418a6 6 0 0 0-6-6h-246.02" stroke="#224c72" stroke-width="2" fill="none"/><path d="M3541 1658.5h-2v-1.03h2z" stroke="#224c72" stroke-width=".05" fill="#224c72"/><path d="M3265.46 1412l21.52-12.72v25.45z" stroke="#224c72" stroke-width="2" fill="#fff"/><path d="M3541 2168.1l-.08 1.06-.26 1.06-.42 1.02-.57.94-.72.83-.83.72-.94.58-1.02.42-1.06.26-1.06.08H3262.5v-2h271.46l.82-.07.76-.2.73-.3.67-.4.6-.5.5-.6.4-.67.3-.73.2-.76.06-.82v-263.06h2zm0-284.74h-2V1780.5h2z" stroke="#224c72" stroke-width=".05" fill="#224c72"/><path d="M3262.53 2175.06h-1.03v-2h1.03z" fill="#224c72"/><path d="M3262.55 2175.08h-1.08v-2.05h1.08zm-1.03-2v1.95h.98v-1.95z" stroke="#224c72" stroke-width=".05" fill="#224c72"/><path d="M3541 1780.53h-2v-1.03h2z" fill="#224c72"/><path d="M3541.03 1780.55h-2.06v-1.08h2.06zm-2-1.02v.97h1.94v-.97z" stroke="#224c72" stroke-width=".05" fill="#224c72"/><use xlink:href="#K" transform="matrix(1,0,0,1,3548,1802.2642735218403) translate(0.005000000000000782 14.4)"/><use xlink:href="#t" transform="matrix(1,0,0,1,3280.1672804962272,2148.459389338816) translate(0.005000000000000782 14.4)"/><use xlink:href="#L" transform="matrix(1,0,0,1,3467.075,1883.358310013411) translate(0.0049999999999954525 14.4)"/><path d="M1960 1881a6 6 0 0 1 6-6h208a6 6 0 0 1 6 6v85a6 6 0 0 1-6 6h-208a6 6 0 0 1-6-6z" stroke="#4881b3" stroke-width="3" fill="#f5fbff"/><path d="M1960 1912.6h220" stroke="#4881b3" stroke-width="3" fill="none"/><use xlink:href="#M" transform="matrix(1,0,0,1,1968,1883) translate(43.6 14.6)"/><path d="M2110.5 2166.05l.07.82.18.76.3.73.4.66.52.6.6.5.67.42.72.3.76.18.83.07H2345v2h-229.55l-1.06-.1-1.06-.25-1-.42-.95-.58-.85-.7-.7-.85-.58-.93-.42-1.02-.26-1.07-.1-1.05v-95.33h2zm0-116.85h-2v-74.7h2z" stroke="#224c72" stroke-width=".05" fill="#224c72"/><path d="M2346.02 2173.1H2345v-2h1.02z" fill="#224c72"/><path d="M2346.05 2173.1h-1.08v-2.04h1.08zm-1.03-2v1.96h.98v-1.95z" stroke="#224c72" stroke-width=".05" fill="#224c72"/><path d="M2110.5 1974.53h-2v-1.03h2z" fill="#224c72"/><path d="M2110.53 1974.55h-2.05v-1.08h2.05zm-2-1.02v.97h1.95v-.97z" stroke="#224c72" stroke-width=".05" fill="#224c72"/><g><use xlink:href="#u" transform="matrix(1,0,0,1,2328.472775785688,2146.4878250056963) translate(0.004999999999999893 14.4)"/></g><g><use xlink:href="#N" transform="matrix(1,0,0,1,2034.106118326261,2049.2) translate(0.0049999999999954525 14.4)"/></g><g><use xlink:href="#t" transform="matrix(1,0,0,1,2117.506118326261,1984.8271801079436) translate(0.005000000000000782 14.4)"/></g><path d="M2400 1884.5a6 6 0 0 1 6-6h176a6 6 0 0 1 6 6v85a6 6 0 0 1-6 6h-176a6 6 0 0 1-6-6z" stroke="#4881b3" stroke-width="3" fill="#f5fbff"/><path d="M2400 1916.1h188" stroke="#4881b3" stroke-width="3" fill="none"/><g><use xlink:href="#O" transform="matrix(1,0,0,1,2408,1886.5) translate(30.099999999999994 14.6)"/></g><path d="M2590.5 1942.58h431.07a6 6 0 0 0 6-6v-135.6" stroke="#224c72" stroke-width="2" fill="none"/><path d="M2590.53 1943.58h-1.03v-2h1.03z" stroke="#224c72" stroke-width=".05" fill="#224c72"/><path d="M3027.57 1778.46l12.72 21.52h-25.46z" stroke="#224c72" stroke-width="2" fill="#fff"/><path d="M2397.5 1942.58H2205.98" stroke="#224c72" stroke-width="2" fill="none"/><path d="M2398.5 1943.58h-1.03v-2h1.03z" stroke="#224c72" stroke-width=".05" fill="#224c72"/><path d="M2183.46 1942.6l21.52-12.74v25.45z" stroke="#224c72" stroke-width="2" fill="#fff"/><path d="M1640 1881a6 6 0 0 1 6-6h176a6 6 0 0 1 6 6v85a6 6 0 0 1-6 6h-176a6 6 0 0 1-6-6z" stroke="#4881b3" stroke-width="3" fill="#f5fbff"/><path d="M1640 1912.6h188" stroke="#4881b3" stroke-width="3" fill="none"/><g><use xlink:href="#P" transform="matrix(1,0,0,1,1648,1883) translate(31.049999999999997 14.6)"/></g><path d="M1830.5 1946.12h63.5v-.02h40.02" stroke="#224c72" stroke-width="2" fill="none"/><path d="M1830.53 1947.12h-1.03v-2h1.03z" stroke="#224c72" stroke-width=".05" fill="#224c72"/><path d="M1956.54 1946.1l-21.52 12.73v-25.45z" stroke="#224c72" stroke-width="2" fill="#fff"/><path d="M2876.02 1411h-758.98l-.82.07-.76.18-.73.3-.67.4-.6.52-.5.6-.4.66-.3.73-.2.76-.06.82v456.46h-2v-456.54l.08-1.06.26-1.06.42-1.02.57-.94.72-.83.83-.72.94-.57 1.02-.42 1.06-.26 1.06-.08h759.06z" stroke="#224c72" stroke-width=".05" fill="#224c72"/><path d="M2112 1873.5h-2v-1.03h2z" fill="#224c72"/><path d="M2112.03 1873.53h-2.06v-1.08h2.06zm-2-1.03v.97h1.94v-.97z" stroke="#224c72" stroke-width=".05" fill="#224c72"/><path d="M2898.54 1410l-21.52 12.73v-25.46z" fill="#fff"/><path d="M2900.5 1410l-24.48 14.48v-28.96zm-22.48 10.97l18.55-10.97-18.55-10.97z" stroke="#224c72" stroke-width=".05" fill="#224c72"/><defs><path fill="#1d262b" d="M24-248c93 1 206-16 204 79-1 75-69 88-152 82V0H24v-248zm52 121c47 0 100 7 100-41 0-47-54-39-100-39v80" id="Q"/><path fill="#1d262b" d="M135-150c-39-12-60 13-60 57V0H25l-1-190h47c2 13-1 29 3 40 6-28 27-53 61-41v41" id="R"/><path fill="#1d262b" d="M185-48c-13 30-37 53-82 52C43 2 14-33 14-96s30-98 90-98c62 0 83 45 84 108H66c0 31 8 55 39 56 18 0 30-7 34-22zm-45-69c5-46-57-63-70-21-2 6-4 13-4 21h74" id="S"/><path fill="#1d262b" d="M121-226c-27-7-43 5-38 36h38v33H83V0H34v-157H6v-33h28c-9-59 32-81 87-68v32" id="T"/><path fill="#1d262b" d="M25-224v-37h50v37H25zM25 0v-190h50V0H25" id="U"/><path fill="#1d262b" d="M144 0l-44-69L55 0H2l70-98-66-92h53l41 62 40-62h54l-67 91 71 99h-54" id="V"/><path fill="#1d262b" d="M137-138c1-29-70-34-71-4 15 46 118 7 119 86 1 83-164 76-172 9l43-7c4 19 20 25 44 25 33 8 57-30 24-41C81-84 22-81 20-136c-2-80 154-74 161-7" id="W"/><g id="a"><use transform="matrix(0.05,0,0,0.05,0,0)" xlink:href="#Q"/><use transform="matrix(0.05,0,0,0.05,12,0)" xlink:href="#R"/><use transform="matrix(0.05,0,0,0.05,19,0)" xlink:href="#S"/><use transform="matrix(0.05,0,0,0.05,29,0)" xlink:href="#T"/><use transform="matrix(0.05,0,0,0.05,34.95,0)" xlink:href="#U"/><use transform="matrix(0.05,0,0,0.05,39.95,0)" xlink:href="#V"/><use transform="matrix(0.05,0,0,0.05,49.95,0)" xlink:href="#S"/><use transform="matrix(0.05,0,0,0.05,59.95,0)" xlink:href="#W"/></g><path fill="#1d262b" d="M100-194c63 0 86 42 84 106H49c0 40 14 67 53 68 26 1 43-12 49-29l28 8c-11 28-37 45-77 45C44 4 14-33 15-96c1-61 26-98 85-98zm52 81c6-60-76-77-97-28-3 7-6 17-6 28h103" id="X"/><path fill="#1d262b" d="M108 0H70L1-190h34L89-25l56-165h34" id="Y"/><path fill="#1d262b" d="M117-194c89-4 53 116 60 194h-32v-121c0-31-8-49-39-48C34-167 62-67 57 0H25l-1-190h30c1 10-1 24 2 32 11-22 29-35 61-36" id="Z"/><path fill="#1d262b" d="M59-47c-2 24 18 29 38 22v24C64 9 27 4 27-40v-127H5v-23h24l9-43h21v43h35v23H59v120" id="aa"/><path fill="#1d262b" d="M33-154v-36h34v36H33zM33 0v-36h34V0H33" id="ab"/><g id="c"><use transform="matrix(0.048148148148148155,0,0,0.048148148148148155,0,0)" xlink:href="#X"/><use transform="matrix(0.048148148148148155,0,0,0.048148148148148155,9.629629629629632,0)" xlink:href="#Y"/><use transform="matrix(0.048148148148148155,0,0,0.048148148148148155,18.296296296296298,0)" xlink:href="#X"/><use transform="matrix(0.048148148148148155,0,0,0.048148148148148155,27.92592592592593,0)" xlink:href="#Z"/><use transform="matrix(0.048148148148148155,0,0,0.048148148148148155,37.555555555555564,0)" xlink:href="#aa"/><use transform="matrix(0.048148148148148155,0,0,0.048148148148148155,42.37037037037038,0)" xlink:href="#ab"/></g><path fill="#1d262b" d="M18-100v-36l175-74v27L42-118l151 64v27" id="ac"/><path fill="#1d262b" d="M106-169C34-169 62-67 57 0H25v-261h32l-1 103c12-21 28-36 61-36 89 0 53 116 60 194h-32v-121c2-32-8-49-39-48" id="ad"/><path fill="#1d262b" d="M115-194c55 1 70 41 70 98S169 2 115 4C84 4 66-9 55-30l1 105H24l-1-265h31l2 30c10-21 28-34 59-34zm-8 174c40 0 45-34 45-75s-6-73-45-74c-42 0-51 32-51 76 0 43 10 73 51 73" id="ae"/><path fill="#1d262b" d="M0 4l72-265h28L28 4H0" id="af"/><path fill="#1d262b" d="M84 4C-5 8 30-112 23-190h32v120c0 31 7 50 39 49 72-2 45-101 50-169h31l1 190h-30c-1-10 1-25-2-33-11 22-28 36-60 37" id="ag"/><path fill="#1d262b" d="M114-163C36-179 61-72 57 0H25l-1-190h30c1 12-1 29 2 39 6-27 23-49 58-41v29" id="ah"/><path fill="#1d262b" d="M24 0v-261h32V0H24" id="ai"/><path fill="#1d262b" d="M33 0v-38h34V0H33" id="aj"/><path fill="#1d262b" d="M100-194c62-1 85 37 85 99 1 63-27 99-86 99S16-35 15-95c0-66 28-99 85-99zM99-20c44 1 53-31 53-75 0-43-8-75-51-75s-53 32-53 75 10 74 51 75" id="ak"/><path fill="#1d262b" d="M177-190C167-65 218 103 67 71c-23-6-38-20-44-43l32-5c15 47 100 32 89-28v-30C133-14 115 1 83 1 29 1 15-40 15-95c0-56 16-97 71-98 29-1 48 16 59 35 1-10 0-23 2-32h30zM94-22c36 0 50-32 50-73 0-42-14-75-50-75-39 0-46 34-46 75s6 73 46 73" id="al"/><path fill="#1d262b" d="M190 0L58-211 59 0H30v-248h39L202-35l-2-213h31V0h-41" id="am"/><path fill="#1d262b" d="M30 0v-248h187v28H63v79h144v27H63v87h162V0H30" id="an"/><path fill="#1d262b" d="M127-220V0H93v-220H8v-28h204v28h-85" id="ao"/><path fill="#1d262b" d="M96-169c-40 0-48 33-48 73s9 75 48 75c24 0 41-14 43-38l32 2c-6 37-31 61-74 61-59 0-76-41-82-99-10-93 101-131 147-64 4 7 5 14 7 22l-32 3c-4-21-16-35-41-35" id="ap"/><path fill="#1d262b" d="M155-56V0h-30v-56H8v-25l114-167h33v167h35v25h-35zm-30-156c-27 46-58 90-88 131h88v-131" id="aq"/><path fill="#1d262b" d="M85-194c31 0 48 13 60 33l-1-100h32l1 261h-30c-2-10 0-23-3-31C134-8 116 4 85 4 32 4 16-35 15-94c0-66 23-100 70-100zm9 24c-40 0-46 34-46 75 0 40 6 74 45 74 42 0 51-32 51-76 0-42-9-74-50-73" id="ar"/><path fill="#1d262b" d="M210-169c-67 3-38 105-44 169h-31v-121c0-29-5-50-35-48C34-165 62-65 56 0H25l-1-190h30c1 10-1 24 2 32 10-44 99-50 107 0 11-21 27-35 58-36 85-2 47 119 55 194h-31v-121c0-29-5-49-35-48" id="as"/><path fill="#1d262b" d="M206 0h-36l-40-164L89 0H53L-1-190h32L70-26l43-164h34l41 164 42-164h31" id="at"/><path fill="#1d262b" d="M158-156l-14 65h45v19h-49L124 0h-19l15-72H56L41 0H22l15-72H2v-19h39l14-65H11v-19h48l15-71h20l-16 71h64l16-71h19l-16 71h37v19h-40zm-83 0L61-91h63l14-65H75" id="au"/><path fill="#1d262b" d="M18-27v-27l151-64-151-65v-27l175 74v36" id="av"/><g id="d"><use transform="matrix(0.048148148148148155,0,0,0.048148148148148155,0,0)" xlink:href="#ac"/><use transform="matrix(0.048148148148148155,0,0,0.048148148148148155,10.111111111111112,0)" xlink:href="#ad"/><use transform="matrix(0.048148148148148155,0,0,0.048148148148148155,19.740740740740744,0)" xlink:href="#aa"/><use transform="matrix(0.048148148148148155,0,0,0.048148148148148155,24.55555555555556,0)" xlink:href="#aa"/><use transform="matrix(0.048148148148148155,0,0,0.048148148148148155,29.370370370370374,0)" xlink:href="#ae"/><use transform="matrix(0.048148148148148155,0,0,0.048148148148148155,39.00000000000001,0)" xlink:href="#ab"/><use transform="matrix(0.048148148148148155,0,0,0.048148148148148155,43.814814814814824,0)" xlink:href="#af"/><use transform="matrix(0.048148148148148155,0,0,0.048148148148148155,48.62962962962964,0)" xlink:href="#af"/><use transform="matrix(0.048148148148148155,0,0,0.048148148148148155,53.44444444444445,0)" xlink:href="#ae"/><use transform="matrix(0.048148148148148155,0,0,0.048148148148148155,63.0740740740741,0)" xlink:href="#ag"/><use transform="matrix(0.048148148148148155,0,0,0.048148148148148155,72.70370370370372,0)" xlink:href="#ah"/><use transform="matrix(0.048148148148148155,0,0,0.048148148148148155,78.43333333333335,0)" xlink:href="#ai"/><use transform="matrix(0.048148148148148155,0,0,0.048148148148148155,82.23703703703706,0)" xlink:href="#aj"/><use transform="matrix(0.048148148148148155,0,0,0.048148148148148155,87.05185185185186,0)" xlink:href="#ak"/><use transform="matrix(0.048148148148148155,0,0,0.048148148148148155,96.6814814814815,0)" xlink:href="#ah"/><use transform="matrix(0.048148148148148155,0,0,0.048148148148148155,102.41111111111113,0)" xlink:href="#al"/><use transform="matrix(0.048148148148148155,0,0,0.048148148148148155,112.04074074074076,0)" xlink:href="#af"/><use transform="matrix(0.048148148148148155,0,0,0.048148148148148155,116.85555555555557,0)" xlink:href="#am"/><use transform="matrix(0.048148148148148155,0,0,0.048148148148148155,129.32592592592593,0)" xlink:href="#an"/><use transform="matrix(0.048148148148148155,0,0,0.048148148148148155,140.8814814814815,0)" xlink:href="#ao"/><use transform="matrix(0.048148148148148155,0,0,0.048148148148148155,151.42592592592595,0)" xlink:href="#af"/><use transform="matrix(0.048148148148148155,0,0,0.048148148148148155,156.24074074074076,0)" xlink:href="#ap"/><use transform="matrix(0.048148148148148155,0,0,0.048148148148148155,164.90740740740742,0)" xlink:href="#aq"/><use transform="matrix(0.048148148148148155,0,0,0.048148148148148155,174.53703703703704,0)" xlink:href="#ar"/><use transform="matrix(0.048148148148148155,0,0,0.048148148148148155,184.16666666666666,0)" xlink:href="#as"/><use transform="matrix(0.048148148148148155,0,0,0.048148148148148155,198.56296296296296,0)" xlink:href="#af"/><use transform="matrix(0.048148148148148155,0,0,0.048148148148148155,203.37777777777777,0)" xlink:href="#X"/><use transform="matrix(0.048148148148148155,0,0,0.048148148148148155,213.00740740740738,0)" xlink:href="#Y"/><use transform="matrix(0.048148148148148155,0,0,0.048148148148148155,221.67407407407407,0)" xlink:href="#X"/><use transform="matrix(0.048148148148148155,0,0,0.048148148148148155,231.30370370370366,0)" xlink:href="#Z"/><use transform="matrix(0.048148148148148155,0,0,0.048148148148148155,240.93333333333328,0)" xlink:href="#aa"/><use transform="matrix(0.048148148148148155,0,0,0.048148148148148155,245.7481481481481,0)" xlink:href="#aj"/><use transform="matrix(0.048148148148148155,0,0,0.048148148148148155,250.5629629629629,0)" xlink:href="#ak"/><use transform="matrix(0.048148148148148155,0,0,0.048148148148148155,260.1925925925925,0)" xlink:href="#at"/><use transform="matrix(0.048148148148148155,0,0,0.048148148148148155,272.66296296296287,0)" xlink:href="#ai"/><use transform="matrix(0.048148148148148155,0,0,0.048148148148148155,276.4666666666666,0)" xlink:href="#au"/><use transform="matrix(0.048148148148148155,0,0,0.048148148148148155,286.0962962962962,0)" xlink:href="#av"/></g><g id="e"><use transform="matrix(0.048148148148148155,0,0,0.048148148148148155,0,0)" xlink:href="#aa"/><use transform="matrix(0.048148148148148155,0,0,0.048148148148148155,4.814814814814816,0)" xlink:href="#ai"/><use transform="matrix(0.048148148148148155,0,0,0.048148148148148155,8.61851851851852,0)" xlink:href="#ab"/></g><path fill="#1d262b" d="M24-231v-30h32v30H24zM24 0v-190h32V0H24" id="aw"/><g id="f"><use transform="matrix(0.048148148148148155,0,0,0.048148148148148155,0,0)" xlink:href="#ac"/><use transform="matrix(0.048148148148148155,0,0,0.048148148148148155,10.111111111111112,0)" xlink:href="#ad"/><use transform="matrix(0.048148148148148155,0,0,0.048148148148148155,19.740740740740744,0)" xlink:href="#aa"/><use transform="matrix(0.048148148148148155,0,0,0.048148148148148155,24.55555555555556,0)" xlink:href="#aa"/><use transform="matrix(0.048148148148148155,0,0,0.048148148148148155,29.370370370370374,0)" xlink:href="#ae"/><use transform="matrix(0.048148148148148155,0,0,0.048148148148148155,39.00000000000001,0)" xlink:href="#ab"/><use transform="matrix(0.048148148148148155,0,0,0.048148148148148155,43.814814814814824,0)" xlink:href="#af"/><use transform="matrix(0.048148148148148155,0,0,0.048148148148148155,48.62962962962964,0)" xlink:href="#af"/><use transform="matrix(0.048148148148148155,0,0,0.048148148148148155,53.44444444444445,0)" xlink:href="#ae"/><use transform="matrix(0.048148148148148155,0,0,0.048148148148148155,63.0740740740741,0)" xlink:href="#ag"/><use transform="matrix(0.048148148148148155,0,0,0.048148148148148155,72.70370370370372,0)" xlink:href="#ah"/><use transform="matrix(0.048148148148148155,0,0,0.048148148148148155,78.43333333333335,0)" xlink:href="#ai"/><use transform="matrix(0.048148148148148155,0,0,0.048148148148148155,82.23703703703706,0)" xlink:href="#aj"/><use transform="matrix(0.048148148148148155,0,0,0.048148148148148155,87.05185185185186,0)" xlink:href="#ak"/><use transform="matrix(0.048148148148148155,0,0,0.048148148148148155,96.6814814814815,0)" xlink:href="#ah"/><use transform="matrix(0.048148148148148155,0,0,0.048148148148148155,102.41111111111113,0)" xlink:href="#al"/><use transform="matrix(0.048148148148148155,0,0,0.048148148148148155,112.04074074074076,0)" xlink:href="#af"/><use transform="matrix(0.048148148148148155,0,0,0.048148148148148155,116.85555555555557,0)" xlink:href="#am"/><use transform="matrix(0.048148148148148155,0,0,0.048148148148148155,129.32592592592593,0)" xlink:href="#an"/><use transform="matrix(0.048148148148148155,0,0,0.048148148148148155,140.8814814814815,0)" xlink:href="#ao"/><use transform="matrix(0.048148148148148155,0,0,0.048148148148148155,151.42592592592595,0)" xlink:href="#af"/><use transform="matrix(0.048148148148148155,0,0,0.048148148148148155,156.24074074074076,0)" xlink:href="#ap"/><use transform="matrix(0.048148148148148155,0,0,0.048148148148148155,164.90740740740742,0)" xlink:href="#aq"/><use transform="matrix(0.048148148148148155,0,0,0.048148148148148155,174.53703703703704,0)" xlink:href="#ar"/><use transform="matrix(0.048148148148148155,0,0,0.048148148148148155,184.16666666666666,0)" xlink:href="#as"/><use transform="matrix(0.048148148148148155,0,0,0.048148148148148155,198.56296296296296,0)" xlink:href="#af"/><use transform="matrix(0.048148148148148155,0,0,0.048148148148148155,203.37777777777777,0)" xlink:href="#aa"/><use transform="matrix(0.048148148148148155,0,0,0.048148148148148155,208.19259259259258,0)" xlink:href="#aw"/><use transform="matrix(0.048148148148148155,0,0,0.048148148148148155,211.9962962962963,0)" xlink:href="#as"/><use transform="matrix(0.048148148148148155,0,0,0.048148148148148155,226.3925925925926,0)" xlink:href="#X"/><use transform="matrix(0.048148148148148155,0,0,0.048148148148148155,236.0222222222222,0)" xlink:href="#ai"/><use transform="matrix(0.048148148148148155,0,0,0.048148148148148155,239.82592592592593,0)" xlink:href="#aw"/><use transform="matrix(0.048148148148148155,0,0,0.048148148148148155,243.62962962962968,0)" xlink:href="#Z"/><use transform="matrix(0.048148148148148155,0,0,0.048148148148148155,253.25925925925927,0)" xlink:href="#X"/><use transform="matrix(0.048148148148148155,0,0,0.048148148148148155,262.8888888888889,0)" xlink:href="#aj"/><use transform="matrix(0.048148148148148155,0,0,0.048148148148148155,267.70370370370375,0)" xlink:href="#ak"/><use transform="matrix(0.048148148148148155,0,0,0.048148148148148155,277.33333333333337,0)" xlink:href="#at"/><use transform="matrix(0.048148148148148155,0,0,0.048148148148148155,289.8037037037037,0)" xlink:href="#ai"/><use transform="matrix(0.048148148148148155,0,0,0.048148148148148155,293.60740740740744,0)" xlink:href="#au"/><use transform="matrix(0.048148148148148155,0,0,0.048148148148148155,303.23703703703706,0)" xlink:href="#av"/></g><g id="g"><use transform="matrix(0.048148148148148155,0,0,0.048148148148148155,0,0)" xlink:href="#al"/><use transform="matrix(0.048148148148148155,0,0,0.048148148148148155,9.629629629629632,0)" xlink:href="#ah"/><use transform="matrix(0.048148148148148155,0,0,0.048148148148148155,15.359259259259261,0)" xlink:href="#ab"/></g><path fill="#1d262b" d="M141-36C126-15 110 5 73 4 37 3 15-17 15-53c-1-64 63-63 125-63 3-35-9-54-41-54-24 1-41 7-42 31l-33-3c5-37 33-52 76-52 45 0 72 20 72 64v82c-1 20 7 32 28 27v20c-31 9-61-2-59-35zM48-53c0 20 12 33 32 33 41-3 63-29 60-74-43 2-92-5-92 41" id="ax"/><path fill="#1d262b" d="M135-143c-3-34-86-38-87 0 15 53 115 12 119 90S17 21 10-45l28-5c4 36 97 45 98 0-10-56-113-15-118-90-4-57 82-63 122-42 12 7 21 19 24 35" id="ay"/><path fill="#1d262b" d="M27 0v-27h64v-190l-56 39v-29l58-41h29v221h61V0H27" id="az"/><g id="h"><use transform="matrix(0.048148148148148155,0,0,0.048148148148148155,0,0)" xlink:href="#ac"/><use transform="matrix(0.048148148148148155,0,0,0.048148148148148155,10.111111111111112,0)" xlink:href="#ad"/><use transform="matrix(0.048148148148148155,0,0,0.048148148148148155,19.740740740740744,0)" xlink:href="#aa"/><use transform="matrix(0.048148148148148155,0,0,0.048148148148148155,24.55555555555556,0)" xlink:href="#aa"/><use transform="matrix(0.048148148148148155,0,0,0.048148148148148155,29.370370370370374,0)" xlink:href="#ae"/><use transform="matrix(0.048148148148148155,0,0,0.048148148148148155,39.00000000000001,0)" xlink:href="#ab"/><use transform="matrix(0.048148148148148155,0,0,0.048148148148148155,43.814814814814824,0)" xlink:href="#af"/><use transform="matrix(0.048148148148148155,0,0,0.048148148148148155,48.62962962962964,0)" xlink:href="#af"/><use transform="matrix(0.048148148148148155,0,0,0.048148148148148155,53.44444444444445,0)" xlink:href="#ae"/><use transform="matrix(0.048148148148148155,0,0,0.048148148148148155,63.0740740740741,0)" xlink:href="#ag"/><use transform="matrix(0.048148148148148155,0,0,0.048148148148148155,72.70370370370372,0)" xlink:href="#ah"/><use transform="matrix(0.048148148148148155,0,0,0.048148148148148155,78.43333333333335,0)" xlink:href="#ai"/><use transform="matrix(0.048148148148148155,0,0,0.048148148148148155,82.23703703703706,0)" xlink:href="#aj"/><use transform="matrix(0.048148148148148155,0,0,0.048148148148148155,87.05185185185186,0)" xlink:href="#ak"/><use transform="matrix(0.048148148148148155,0,0,0.048148148148148155,96.6814814814815,0)" xlink:href="#ah"/><use transform="matrix(0.048148148148148155,0,0,0.048148148148148155,102.41111111111113,0)" xlink:href="#al"/><use transform="matrix(0.048148148148148155,0,0,0.048148148148148155,112.04074074074076,0)" xlink:href="#af"/><use transform="matrix(0.048148148148148155,0,0,0.048148148148148155,116.85555555555557,0)" xlink:href="#al"/><use transform="matrix(0.048148148148148155,0,0,0.048148148148148155,126.4851851851852,0)" xlink:href="#ak"/><use transform="matrix(0.048148148148148155,0,0,0.048148148148148155,136.11481481481482,0)" xlink:href="#ak"/><use transform="matrix(0.048148148148148155,0,0,0.048148148148148155,145.74444444444444,0)" xlink:href="#ar"/><use transform="matrix(0.048148148148148155,0,0,0.048148148148148155,155.37407407407406,0)" xlink:href="#ah"/><use transform="matrix(0.048148148148148155,0,0,0.048148148148148155,161.1037037037037,0)" xlink:href="#X"/><use transform="matrix(0.048148148148148155,0,0,0.048148148148148155,170.73333333333332,0)" xlink:href="#ai"/><use transform="matrix(0.048148148148148155,0,0,0.048148148148148155,174.53703703703704,0)" xlink:href="#ax"/><use transform="matrix(0.048148148148148155,0,0,0.048148148148148155,184.16666666666666,0)" xlink:href="#aa"/><use transform="matrix(0.048148148148148155,0,0,0.048148148148148155,188.98148148148147,0)" xlink:href="#aw"/><use transform="matrix(0.048148148148148155,0,0,0.048148148148148155,192.78518518518518,0)" xlink:href="#ak"/><use transform="matrix(0.048148148148148155,0,0,0.048148148148148155,202.4148148148148,0)" xlink:href="#Z"/><use transform="matrix(0.048148148148148155,0,0,0.048148148148148155,212.04444444444442,0)" xlink:href="#ay"/><use transform="matrix(0.048148148148148155,0,0,0.048148148148148155,220.7111111111111,0)" xlink:href="#af"/><use transform="matrix(0.048148148148148155,0,0,0.048148148148148155,225.52592592592586,0)" xlink:href="#Y"/><use transform="matrix(0.048148148148148155,0,0,0.048148148148148155,234.19259259259255,0)" xlink:href="#az"/><use transform="matrix(0.048148148148148155,0,0,0.048148148148148155,243.82222222222217,0)" xlink:href="#au"/><use transform="matrix(0.048148148148148155,0,0,0.048148148148148155,253.4518518518518,0)" xlink:href="#av"/></g><g id="i"><use transform="matrix(0.048148148148148155,0,0,0.048148148148148155,0,0)" xlink:href="#al"/><use transform="matrix(0.048148148148148155,0,0,0.048148148148148155,9.629629629629632,0)" xlink:href="#X"/><use transform="matrix(0.048148148148148155,0,0,0.048148148148148155,19.259259259259263,0)" xlink:href="#ak"/><use transform="matrix(0.048148148148148155,0,0,0.048148148148148155,28.888888888888893,0)" xlink:href="#ab"/></g><path fill="#1d262b" d="M126-127c33 6 58 20 58 59 0 88-139 92-164 29-3-8-5-16-6-25l32-3c6 27 21 44 54 44 32 0 52-15 52-46 0-38-36-46-79-43v-28c39 1 72-4 72-42 0-27-17-43-46-43-28 0-47 15-49 41l-32-3c6-42 35-63 81-64 48-1 79 21 79 65 0 36-21 52-52 59" id="aA"/><path fill="#1d262b" d="M101-251c82-7 93 87 43 132L82-64C71-53 59-42 53-27h129V0H18c2-99 128-94 128-182 0-28-16-43-45-43s-46 15-49 41l-32-3c6-41 34-60 81-64" id="aB"/><path fill="#1d262b" d="M101-251c68 0 85 55 85 127S166 4 100 4C33 4 14-52 14-124c0-73 17-127 87-127zm-1 229c47 0 54-49 54-102s-4-102-53-102c-51 0-55 48-55 102 0 53 5 102 54 102" id="aC"/><path fill="#1d262b" d="M134-131c28 9 52 24 51 62-1 50-34 73-85 73S17-19 16-69c0-36 21-54 49-61-75-25-45-126 34-121 46 3 78 18 79 63 0 33-17 51-44 57zm-34-11c31 1 46-15 46-44 0-28-17-43-47-42-29 0-46 13-45 42 1 28 16 44 46 44zm1 122c35 0 51-18 51-52 0-30-18-46-53-46-33 0-51 17-51 47 0 34 19 51 53 51" id="aD"/><path fill="#1d262b" d="M-5 72V49h209v23H-5" id="aE"/><g id="j"><use transform="matrix(0.048148148148148155,0,0,0.048148148148148155,0,0)" xlink:href="#ac"/><use transform="matrix(0.048148148148148155,0,0,0.048148148148148155,10.111111111111112,0)" xlink:href="#ad"/><use transform="matrix(0.048148148148148155,0,0,0.048148148148148155,19.740740740740744,0)" xlink:href="#aa"/><use transform="matrix(0.048148148148148155,0,0,0.048148148148148155,24.55555555555556,0)" xlink:href="#aa"/><use transform="matrix(0.048148148148148155,0,0,0.048148148148148155,29.370370370370374,0)" xlink:href="#ae"/><use transform="matrix(0.048148148148148155,0,0,0.048148148148148155,39.00000000000001,0)" xlink:href="#ab"/><use transform="matrix(0.048148148148148155,0,0,0.048148148148148155,43.814814814814824,0)" xlink:href="#af"/><use transform="matrix(0.048148148148148155,0,0,0.048148148148148155,48.62962962962964,0)" xlink:href="#af"/><use transform="matrix(0.048148148148148155,0,0,0.048148148148148155,53.44444444444445,0)" xlink:href="#at"/><use transform="matrix(0.048148148148148155,0,0,0.048148148148148155,65.91481481481483,0)" xlink:href="#at"/><use transform="matrix(0.048148148148148155,0,0,0.048148148148148155,78.38518518518521,0)" xlink:href="#at"/><use transform="matrix(0.048148148148148155,0,0,0.048148148148148155,89.89259259259262,0)" xlink:href="#aj"/><use transform="matrix(0.048148148148148155,0,0,0.048148148148148155,94.70740740740743,0)" xlink:href="#at"/><use transform="matrix(0.048148148148148155,0,0,0.048148148148148155,107.17777777777782,0)" xlink:href="#aA"/><use transform="matrix(0.048148148148148155,0,0,0.048148148148148155,116.80740740740745,0)" xlink:href="#aj"/><use transform="matrix(0.048148148148148155,0,0,0.048148148148148155,121.62222222222223,0)" xlink:href="#ak"/><use transform="matrix(0.048148148148148155,0,0,0.048148148148148155,131.25185185185188,0)" xlink:href="#ah"/><use transform="matrix(0.048148148148148155,0,0,0.048148148148148155,136.98148148148152,0)" xlink:href="#al"/><use transform="matrix(0.048148148148148155,0,0,0.048148148148148155,146.61111111111114,0)" xlink:href="#af"/><use transform="matrix(0.048148148148148155,0,0,0.048148148148148155,151.42592592592595,0)" xlink:href="#aB"/><use transform="matrix(0.048148148148148155,0,0,0.048148148148148155,161.05555555555557,0)" xlink:href="#aC"/><use transform="matrix(0.048148148148148155,0,0,0.048148148148148155,170.6851851851852,0)" xlink:href="#aC"/><use transform="matrix(0.048148148148148155,0,0,0.048148148148148155,180.3148148148148,0)" xlink:href="#aA"/><use transform="matrix(0.048148148148148155,0,0,0.048148148148148155,189.94444444444443,0)" xlink:href="#af"/><use transform="matrix(0.048148148148148155,0,0,0.048148148148148155,194.75925925925924,0)" xlink:href="#aC"/><use transform="matrix(0.048148148148148155,0,0,0.048148148148148155,204.38888888888889,0)" xlink:href="#az"/><use transform="matrix(0.048148148148148155,0,0,0.048148148148148155,214.01851851851848,0)" xlink:href="#af"/><use transform="matrix(0.048148148148148155,0,0,0.048148148148148155,218.8333333333333,0)" xlink:href="#al"/><use transform="matrix(0.048148148148148155,0,0,0.048148148148148155,228.4629629629629,0)" xlink:href="#X"/><use transform="matrix(0.048148148148148155,0,0,0.048148148148148155,238.09259259259255,0)" xlink:href="#ak"/><use transform="matrix(0.048148148148148155,0,0,0.048148148148148155,247.72222222222211,0)" xlink:href="#af"/><use transform="matrix(0.048148148148148155,0,0,0.048148148148148155,252.53703703703695,0)" xlink:href="#at"/><use transform="matrix(0.048148148148148155,0,0,0.048148148148148155,265.0074074074073,0)" xlink:href="#al"/><use transform="matrix(0.048148148148148155,0,0,0.048148148148148155,274.6370370370369,0)" xlink:href="#ay"/><use transform="matrix(0.048148148148148155,0,0,0.048148148148148155,283.3037037037036,0)" xlink:href="#aD"/><use transform="matrix(0.048148148148148155,0,0,0.048148148148148155,292.9333333333332,0)" xlink:href="#aq"/><use transform="matrix(0.048148148148148155,0,0,0.048148148148148155,302.56296296296284,0)" xlink:href="#aE"/><use transform="matrix(0.048148148148148155,0,0,0.048148148148148155,312.19259259259246,0)" xlink:href="#ae"/><use transform="matrix(0.048148148148148155,0,0,0.048148148148148155,321.8222222222221,0)" xlink:href="#ak"/><use transform="matrix(0.048148148148148155,0,0,0.048148148148148155,331.4518518518517,0)" xlink:href="#ay"/><use transform="matrix(0.048148148148148155,0,0,0.048148148148148155,340.1185185185184,0)" xlink:href="#au"/><use transform="matrix(0.048148148148148155,0,0,0.048148148148148155,349.748148148148,0)" xlink:href="#av"/></g><path fill="#1d262b" d="M141 0L90-78 38 0H4l68-98-65-92h35l48 74 47-74h35l-64 92 68 98h-35" id="aF"/><g id="k"><use transform="matrix(0.048148148148148155,0,0,0.048148148148148155,0,0)" xlink:href="#X"/><use transform="matrix(0.048148148148148155,0,0,0.048148148148148155,9.629629629629632,0)" xlink:href="#aF"/><use transform="matrix(0.048148148148148155,0,0,0.048148148148148155,18.296296296296298,0)" xlink:href="#ab"/></g><g id="l"><use transform="matrix(0.048148148148148155,0,0,0.048148148148148155,0,0)" xlink:href="#ac"/><use transform="matrix(0.048148148148148155,0,0,0.048148148148148155,10.111111111111112,0)" xlink:href="#ad"/><use transform="matrix(0.048148148148148155,0,0,0.048148148148148155,19.740740740740744,0)" xlink:href="#aa"/><use transform="matrix(0.048148148148148155,0,0,0.048148148148148155,24.55555555555556,0)" xlink:href="#aa"/><use transform="matrix(0.048148148148148155,0,0,0.048148148148148155,29.370370370370374,0)" xlink:href="#ae"/><use transform="matrix(0.048148148148148155,0,0,0.048148148148148155,39.00000000000001,0)" xlink:href="#ab"/><use transform="matrix(0.048148148148148155,0,0,0.048148148148148155,43.814814814814824,0)" xlink:href="#af"/><use transform="matrix(0.048148148148148155,0,0,0.048148148148148155,48.62962962962964,0)" xlink:href="#af"/><use transform="matrix(0.048148148148148155,0,0,0.048148148148148155,53.44444444444445,0)" xlink:href="#X"/><use transform="matrix(0.048148148148148155,0,0,0.048148148148148155,63.0740740740741,0)" xlink:href="#aF"/><use transform="matrix(0.048148148148148155,0,0,0.048148148148148155,71.74074074074076,0)" xlink:href="#ax"/><use transform="matrix(0.048148148148148155,0,0,0.048148148148148155,81.3703703703704,0)" xlink:href="#as"/><use transform="matrix(0.048148148148148155,0,0,0.048148148148148155,95.7666666666667,0)" xlink:href="#ae"/><use transform="matrix(0.048148148148148155,0,0,0.048148148148148155,105.39629629629633,0)" xlink:href="#ai"/><use transform="matrix(0.048148148148148155,0,0,0.048148148148148155,109.20000000000003,0)" xlink:href="#X"/><use transform="matrix(0.048148148148148155,0,0,0.048148148148148155,118.82962962962966,0)" xlink:href="#aj"/><use transform="matrix(0.048148148148148155,0,0,0.048148148148148155,123.64444444444449,0)" xlink:href="#ak"/><use transform="matrix(0.048148148148148155,0,0,0.048148148148148155,133.2740740740741,0)" xlink:href="#ah"/><use transform="matrix(0.048148148148148155,0,0,0.048148148148148155,139.00370370370374,0)" xlink:href="#al"/><use transform="matrix(0.048148148148148155,0,0,0.048148148148148155,148.63333333333335,0)" xlink:href="#af"/><use transform="matrix(0.048148148148148155,0,0,0.048148148148148155,153.44814814814816,0)" xlink:href="#av"/></g><g id="n"><use transform="matrix(0.1425925925925924,0,0,0.1425925925925924,0,0)" xlink:href="#ao"/><use transform="matrix(0.1425925925925924,0,0,0.1425925925925924,29.374074074074038,0)" xlink:href="#ah"/><use transform="matrix(0.1425925925925924,0,0,0.1425925925925924,46.34259259259254,0)" xlink:href="#aw"/><use transform="matrix(0.1425925925925924,0,0,0.1425925925925924,57.60740740740734,0)" xlink:href="#ae"/></g><path fill="#1d262b" d="M30-248c87 1 191-15 191 75 0 78-77 80-158 76V0H30v-248zm33 125c57 0 124 11 124-50 0-59-68-47-124-48v98" id="aG"/><g id="o"><use transform="matrix(0.1425925925925924,0,0,0.1425925925925924,0,0)" xlink:href="#aG"/><use transform="matrix(0.1425925925925924,0,0,0.1425925925925924,34.22222222222218,0)" xlink:href="#ai"/><use transform="matrix(0.1425925925925924,0,0,0.1425925925925924,45.48703703703698,0)" xlink:href="#ax"/><use transform="matrix(0.1425925925925924,0,0,0.1425925925925924,74.00555555555546,0)" xlink:href="#Z"/><use transform="matrix(0.1425925925925924,0,0,0.1425925925925924,102.52407407407397,0)" xlink:href="#Z"/><use transform="matrix(0.1425925925925924,0,0,0.1425925925925924,131.04259259259243,0)" xlink:href="#X"/><use transform="matrix(0.1425925925925924,0,0,0.1425925925925924,159.5611111111109,0)" xlink:href="#ah"/></g><path fill="#1d262b" d="M185-189c-5-48-123-54-124 2 14 75 158 14 163 119 3 78-121 87-175 55-17-10-28-26-33-46l33-7c5 56 141 63 141-1 0-78-155-14-162-118-5-82 145-84 179-34 5 7 8 16 11 25" id="aH"/><g id="p"><use transform="matrix(0.1425925925925924,0,0,0.1425925925925924,0,0)" xlink:href="#aH"/><use transform="matrix(0.1425925925925924,0,0,0.1425925925925924,34.22222222222218,0)" xlink:href="#X"/><use transform="matrix(0.1425925925925924,0,0,0.1425925925925924,62.74074074074066,0)" xlink:href="#ah"/><use transform="matrix(0.1425925925925924,0,0,0.1425925925925924,79.70925925925916,0)" xlink:href="#Y"/><use transform="matrix(0.1425925925925924,0,0,0.1425925925925924,105.37592592592578,0)" xlink:href="#aw"/><use transform="matrix(0.1425925925925924,0,0,0.1425925925925924,116.64074074074057,0)" xlink:href="#ap"/><use transform="matrix(0.1425925925925924,0,0,0.1425925925925924,142.30740740740723,0)" xlink:href="#X"/></g><path fill="#1d262b" d="M240 0l2-218c-23 76-54 145-80 218h-23L58-218 59 0H30v-248h44l77 211c21-75 51-140 76-211h43V0h-30" id="aI"/><g id="q"><use transform="matrix(0.1425925925925924,0,0,0.1425925925925924,0,0)" xlink:href="#aI"/><use transform="matrix(0.1425925925925924,0,0,0.1425925925925924,42.63518518518513,0)" xlink:href="#ak"/><use transform="matrix(0.1425925925925924,0,0,0.1425925925925924,71.15370370370361,0)" xlink:href="#ar"/><use transform="matrix(0.1425925925925924,0,0,0.1425925925925924,99.67222222222212,0)" xlink:href="#X"/><use transform="matrix(0.1425925925925924,0,0,0.1425925925925924,128.19074074074058,0)" xlink:href="#ai"/></g><path fill="#1d262b" d="M35-132v-50h50v50H35zM35 0v-49h50V0H35" id="aJ"/><path fill="#1d262b" d="M136-208V0H84v-208H4v-40h212v40h-80" id="aK"/><path fill="#1d262b" d="M135-194c53 0 70 44 70 98 0 56-19 98-73 100-31 1-45-17-59-34 3 33 2 69 2 105H25l-1-265h48c2 10 0 23 3 31 11-24 29-35 60-35zM114-30c33 0 39-31 40-66 0-38-9-64-40-64-56 0-55 130 0 130" id="aL"/><path fill="#1d262b" d="M25 0v-261h50V0H25" id="aM"/><path fill="#1d262b" d="M133-34C117-15 103 5 69 4 32 3 11-16 11-54c-1-60 55-63 116-61 1-26-3-47-28-47-18 1-26 9-28 27l-52-2c7-38 36-58 82-57s74 22 75 68l1 82c-1 14 12 18 25 15v27c-30 8-71 5-69-32zm-48 3c29 0 43-24 42-57-32 0-66-3-65 30 0 17 8 27 23 27" id="aN"/><path fill="#1d262b" d="M135-194c87-1 58 113 63 194h-50c-7-57 23-157-34-157-59 0-34 97-39 157H25l-1-190h47c2 12-1 28 3 38 12-26 28-41 61-42" id="aO"/><g id="r"><use transform="matrix(0.05,0,0,0.05,0,0)" xlink:href="#S"/><use transform="matrix(0.05,0,0,0.05,10,0)" xlink:href="#V"/><use transform="matrix(0.05,0,0,0.05,20,0)" xlink:href="#aJ"/><use transform="matrix(0.05,0,0,0.05,25.950000000000003,0)" xlink:href="#aK"/><use transform="matrix(0.05,0,0,0.05,35.9,0)" xlink:href="#R"/><use transform="matrix(0.05,0,0,0.05,42.9,0)" xlink:href="#U"/><use transform="matrix(0.05,0,0,0.05,47.9,0)" xlink:href="#aL"/><use transform="matrix(0.05,0,0,0.05,58.85,0)" xlink:href="#Q"/><use transform="matrix(0.05,0,0,0.05,70.85,0)" xlink:href="#aM"/><use transform="matrix(0.05,0,0,0.05,75.85,0)" xlink:href="#aN"/><use transform="matrix(0.05,0,0,0.05,85.85,0)" xlink:href="#aO"/><use transform="matrix(0.05,0,0,0.05,96.8,0)" xlink:href="#aO"/><use transform="matrix(0.05,0,0,0.05,107.75,0)" xlink:href="#S"/><use transform="matrix(0.05,0,0,0.05,117.75,0)" xlink:href="#R"/></g><g id="s"><use transform="matrix(0.05,0,0,0.05,0,0)" xlink:href="#S"/><use transform="matrix(0.05,0,0,0.05,10,0)" xlink:href="#V"/><use transform="matrix(0.05,0,0,0.05,20,0)" xlink:href="#aJ"/><use transform="matrix(0.05,0,0,0.05,25.950000000000003,0)" xlink:href="#aK"/><use transform="matrix(0.05,0,0,0.05,35.9,0)" xlink:href="#R"/><use transform="matrix(0.05,0,0,0.05,42.9,0)" xlink:href="#U"/><use transform="matrix(0.05,0,0,0.05,47.9,0)" xlink:href="#aL"/></g><path fill="#1d262b" d="M80-196l47-18 7 23-49 13 32 44-20 13-27-46-27 45-21-12 33-44-49-13 8-23 47 19-2-53h23" id="aP"/><g id="t"><use transform="matrix(0.05,0,0,0.05,0,0)" xlink:href="#aC"/><use transform="matrix(0.05,0,0,0.05,10,0)" xlink:href="#aj"/><use transform="matrix(0.05,0,0,0.05,15,0)" xlink:href="#aj"/><use transform="matrix(0.05,0,0,0.05,20,0)" xlink:href="#aP"/></g><use transform="matrix(0.05,0,0,0.05,0,0)" xlink:href="#az" id="u"/><g id="v"><use transform="matrix(0.05,0,0,0.05,0,0)" xlink:href="#X"/><use transform="matrix(0.05,0,0,0.05,10,0)" xlink:href="#aF"/><use transform="matrix(0.05,0,0,0.05,19,0)" xlink:href="#ab"/><use transform="matrix(0.05,0,0,0.05,24,0)" xlink:href="#ae"/><use transform="matrix(0.05,0,0,0.05,34,0)" xlink:href="#ai"/><use transform="matrix(0.05,0,0,0.05,37.95,0)" xlink:href="#ax"/><use transform="matrix(0.05,0,0,0.05,47.95,0)" xlink:href="#Z"/><use transform="matrix(0.05,0,0,0.05,57.95,0)" xlink:href="#ay"/><use transform="matrix(0.05,0,0,0.05,66.95,0)" xlink:href="#ao"/><use transform="matrix(0.05,0,0,0.05,77.25,0)" xlink:href="#ah"/><use transform="matrix(0.05,0,0,0.05,83.2,0)" xlink:href="#aw"/><use transform="matrix(0.05,0,0,0.05,87.15,0)" xlink:href="#ae"/></g><path fill="#1d262b" d="M128 0H69L1-190h53L99-40l48-150h52" id="aQ"/><path fill="#1d262b" d="M115-3C79 11 28 4 28-45v-112H4v-33h27l15-45h31v45h36v33H77v99c-1 23 16 31 38 25v30" id="aR"/><path fill="#1d262b" d="M24 0v-248h195v40H76v63h132v40H76v65h150V0H24" id="aS"/><g id="w"><use transform="matrix(0.05,0,0,0.05,0,0)" xlink:href="#S"/><use transform="matrix(0.05,0,0,0.05,10,0)" xlink:href="#aQ"/><use transform="matrix(0.05,0,0,0.05,20,0)" xlink:href="#S"/><use transform="matrix(0.05,0,0,0.05,30,0)" xlink:href="#aO"/><use transform="matrix(0.05,0,0,0.05,40.95,0)" xlink:href="#aR"/><use transform="matrix(0.05,0,0,0.05,46.900000000000006,0)" xlink:href="#aJ"/><use transform="matrix(0.05,0,0,0.05,52.85,0)" xlink:href="#aS"/><use transform="matrix(0.05,0,0,0.05,64.85000000000001,0)" xlink:href="#aQ"/><use transform="matrix(0.05,0,0,0.05,74.85000000000001,0)" xlink:href="#S"/><use transform="matrix(0.05,0,0,0.05,84.85000000000001,0)" xlink:href="#aO"/><use transform="matrix(0.05,0,0,0.05,95.80000000000001,0)" xlink:href="#aR"/></g><path fill="#1d262b" d="M16-82v-28h88v28H16" id="aT"/><use transform="matrix(0.05,0,0,0.05,0,0)" xlink:href="#aT" id="x"/><g id="y"><use transform="matrix(0.05,0,0,0.05,0,0)" xlink:href="#al"/><use transform="matrix(0.05,0,0,0.05,10,0)" xlink:href="#ah"/><use transform="matrix(0.05,0,0,0.05,15.949999999999998,0)" xlink:href="#ab"/><use transform="matrix(0.05,0,0,0.05,20.95,0)" xlink:href="#Z"/><use transform="matrix(0.05,0,0,0.05,30.950000000000003,0)" xlink:href="#ax"/><use transform="matrix(0.05,0,0,0.05,40.95,0)" xlink:href="#as"/><use transform="matrix(0.05,0,0,0.05,55.900000000000006,0)" xlink:href="#X"/></g><path fill="#1d262b" d="M220-157c-53 9-28 100-34 157h-49v-107c1-27-5-49-29-50C55-147 81-57 75 0H25l-1-190h47c2 12-1 28 3 38 10-53 101-56 108 0 13-22 24-43 59-42 82 1 51 116 57 194h-49v-107c-1-25-5-48-29-50" id="aU"/><g id="z"><use transform="matrix(0.05,0,0,0.05,0,0)" xlink:href="#S"/><use transform="matrix(0.05,0,0,0.05,10,0)" xlink:href="#V"/><use transform="matrix(0.05,0,0,0.05,20,0)" xlink:href="#aJ"/><use transform="matrix(0.05,0,0,0.05,25.950000000000003,0)" xlink:href="#aS"/><use transform="matrix(0.05,0,0,0.05,37.95,0)" xlink:href="#aQ"/><use transform="matrix(0.05,0,0,0.05,47.95,0)" xlink:href="#S"/><use transform="matrix(0.05,0,0,0.05,57.95,0)" xlink:href="#aO"/><use transform="matrix(0.05,0,0,0.05,68.9,0)" xlink:href="#aR"/><use transform="matrix(0.05,0,0,0.05,74.85000000000001,0)" xlink:href="#aK"/><use transform="matrix(0.05,0,0,0.05,85.45000000000002,0)" xlink:href="#U"/><use transform="matrix(0.05,0,0,0.05,90.45000000000002,0)" xlink:href="#aU"/><use transform="matrix(0.05,0,0,0.05,106.45,0)" xlink:href="#S"/></g><use transform="matrix(0.05,0,0,0.05,0,0)" xlink:href="#aT" id="A"/><g id="B"><use transform="matrix(0.048148148148148155,0,0,0.048148148148148155,0,0)" xlink:href="#aa"/><use transform="matrix(0.048148148148148155,0,0,0.048148148148148155,4.814814814814816,0)" xlink:href="#ai"/><use transform="matrix(0.048148148148148155,0,0,0.048148148148148155,8.61851851851852,0)" xlink:href="#ab"/><use transform="matrix(0.048148148148148155,0,0,0.048148148148148155,13.433333333333339,0)" xlink:href="#ax"/><use transform="matrix(0.048148148148148155,0,0,0.048148148148148155,23.06296296296297,0)" xlink:href="#aa"/></g><use transform="matrix(0.048148148148148155,0,0,0.048148148148148155,0,0)" xlink:href="#aT" id="C"/><g id="D"><use transform="matrix(0.048148148148148155,0,0,0.048148148148148155,0,0)" xlink:href="#aa"/><use transform="matrix(0.048148148148148155,0,0,0.048148148148148155,4.814814814814816,0)" xlink:href="#ai"/><use transform="matrix(0.048148148148148155,0,0,0.048148148148148155,8.61851851851852,0)" xlink:href="#ab"/><use transform="matrix(0.048148148148148155,0,0,0.048148148148148155,13.433333333333339,0)" xlink:href="#ar"/><use transform="matrix(0.048148148148148155,0,0,0.048148148148148155,23.06296296296297,0)" xlink:href="#ag"/><use transform="matrix(0.048148148148148155,0,0,0.048148148148148155,32.692592592592604,0)" xlink:href="#ah"/><use transform="matrix(0.048148148148148155,0,0,0.048148148148148155,38.42222222222223,0)" xlink:href="#ax"/><use transform="matrix(0.048148148148148155,0,0,0.048148148148148155,48.051851851851865,0)" xlink:href="#aa"/><use transform="matrix(0.048148148148148155,0,0,0.048148148148148155,52.86666666666669,0)" xlink:href="#aw"/><use transform="matrix(0.048148148148148155,0,0,0.048148148148148155,56.67037037037039,0)" xlink:href="#ak"/><use transform="matrix(0.048148148148148155,0,0,0.048148148148148155,66.30000000000001,0)" xlink:href="#Z"/></g><g id="E"><use transform="matrix(0.048148148148148155,0,0,0.048148148148148155,0,0)" xlink:href="#X"/><use transform="matrix(0.048148148148148155,0,0,0.048148148148148155,9.629629629629632,0)" xlink:href="#Y"/><use transform="matrix(0.048148148148148155,0,0,0.048148148148148155,18.296296296296298,0)" xlink:href="#X"/><use transform="matrix(0.048148148148148155,0,0,0.048148148148148155,27.92592592592593,0)" xlink:href="#Z"/><use transform="matrix(0.048148148148148155,0,0,0.048148148148148155,37.555555555555564,0)" xlink:href="#aa"/><use transform="matrix(0.048148148148148155,0,0,0.048148148148148155,42.37037037037038,0)" xlink:href="#ab"/><use transform="matrix(0.048148148148148155,0,0,0.048148148148148155,47.1851851851852,0)" xlink:href="#aa"/><use transform="matrix(0.048148148148148155,0,0,0.048148148148148155,52.00000000000002,0)" xlink:href="#aw"/><use transform="matrix(0.048148148148148155,0,0,0.048148148148148155,55.803703703703725,0)" xlink:href="#as"/><use transform="matrix(0.048148148148148155,0,0,0.048148148148148155,70.20000000000002,0)" xlink:href="#X"/></g><path fill="#1d262b" d="M190-63c-7 42-38 67-86 67-59 0-84-38-90-98-12-110 154-137 174-36l-49 2c-2-19-15-32-35-32-30 0-35 28-38 64-6 74 65 87 74 30" id="aV"/><g id="F"><use transform="matrix(0.05,0,0,0.05,0,0)" xlink:href="#S"/><use transform="matrix(0.05,0,0,0.05,10,0)" xlink:href="#V"/><use transform="matrix(0.05,0,0,0.05,20,0)" xlink:href="#aJ"/><use transform="matrix(0.05,0,0,0.05,25.950000000000003,0)" xlink:href="#Q"/><use transform="matrix(0.05,0,0,0.05,37.95,0)" xlink:href="#aM"/><use transform="matrix(0.05,0,0,0.05,42.95,0)" xlink:href="#aN"/><use transform="matrix(0.05,0,0,0.05,52.95,0)" xlink:href="#aV"/><use transform="matrix(0.05,0,0,0.05,62.95,0)" xlink:href="#S"/></g><g id="G"><use transform="matrix(0.05,0,0,0.05,0,0)" xlink:href="#al"/><use transform="matrix(0.05,0,0,0.05,10,0)" xlink:href="#X"/><use transform="matrix(0.05,0,0,0.05,20,0)" xlink:href="#ak"/><use transform="matrix(0.05,0,0,0.05,30,0)" xlink:href="#ab"/><use transform="matrix(0.05,0,0,0.05,35,0)" xlink:href="#ai"/><use transform="matrix(0.05,0,0,0.05,38.95,0)" xlink:href="#ax"/><use transform="matrix(0.05,0,0,0.05,48.95,0)" xlink:href="#aa"/></g><g id="H"><use transform="matrix(0.05,0,0,0.05,0,0)" xlink:href="#al"/><use transform="matrix(0.05,0,0,0.05,10,0)" xlink:href="#X"/><use transform="matrix(0.05,0,0,0.05,20,0)" xlink:href="#ak"/><use transform="matrix(0.05,0,0,0.05,30,0)" xlink:href="#ab"/><use transform="matrix(0.05,0,0,0.05,35,0)" xlink:href="#ai"/><use transform="matrix(0.05,0,0,0.05,38.95,0)" xlink:href="#ak"/><use transform="matrix(0.05,0,0,0.05,48.95,0)" xlink:href="#Z"/><use transform="matrix(0.05,0,0,0.05,58.95,0)" xlink:href="#al"/></g><g id="I"><use transform="matrix(0.048148148148148155,0,0,0.048148148148148155,0,0)" xlink:href="#X"/><use transform="matrix(0.048148148148148155,0,0,0.048148148148148155,9.629629629629632,0)" xlink:href="#Y"/><use transform="matrix(0.048148148148148155,0,0,0.048148148148148155,18.296296296296298,0)" xlink:href="#X"/><use transform="matrix(0.048148148148148155,0,0,0.048148148148148155,27.92592592592593,0)" xlink:href="#Z"/><use transform="matrix(0.048148148148148155,0,0,0.048148148148148155,37.555555555555564,0)" xlink:href="#aa"/><use transform="matrix(0.048148148148148155,0,0,0.048148148148148155,42.37037037037038,0)" xlink:href="#ab"/><use transform="matrix(0.048148148148148155,0,0,0.048148148148148155,47.1851851851852,0)" xlink:href="#ae"/><use transform="matrix(0.048148148148148155,0,0,0.048148148148148155,56.81481481481483,0)" xlink:href="#ai"/><use transform="matrix(0.048148148148148155,0,0,0.048148148148148155,60.61851851851854,0)" xlink:href="#ax"/><use transform="matrix(0.048148148148148155,0,0,0.048148148148148155,70.24814814814816,0)" xlink:href="#ap"/><use transform="matrix(0.048148148148148155,0,0,0.048148148148148155,78.91481481481483,0)" xlink:href="#X"/></g><path fill="#1d262b" d="M199 0l-22-63H83L61 0H9l90-248h61L250 0h-51zm-33-102l-36-108c-10 38-24 72-36 108h72" id="aW"/><path fill="#1d262b" d="M110-194c64 0 96 36 96 99 0 64-35 99-97 99-61 0-95-36-95-99 0-62 34-99 96-99zm-1 164c35 0 45-28 45-65 0-40-10-65-43-65-34 0-45 26-45 65 0 36 10 65 43 65" id="aX"/><path fill="#1d262b" d="M88-194c31-1 46 15 58 34l-1-101h50l1 261h-48c-2-10 0-23-3-31C134-8 116 4 84 4 32 4 16-41 15-95c0-56 19-97 73-99zm17 164c33 0 40-30 41-66 1-37-9-64-41-64s-38 30-39 65c0 43 13 65 39 65" id="aY"/><g id="J"><use transform="matrix(0.05,0,0,0.05,0,0)" xlink:href="#S"/><use transform="matrix(0.05,0,0,0.05,10,0)" xlink:href="#V"/><use transform="matrix(0.05,0,0,0.05,20,0)" xlink:href="#aJ"/><use transform="matrix(0.05,0,0,0.05,25.950000000000003,0)" xlink:href="#aW"/><use transform="matrix(0.05,0,0,0.05,38.9,0)" xlink:href="#aV"/><use transform="matrix(0.05,0,0,0.05,48.9,0)" xlink:href="#aV"/><use transform="matrix(0.05,0,0,0.05,58.900000000000006,0)" xlink:href="#aX"/><use transform="matrix(0.05,0,0,0.05,69.85,0)" xlink:href="#aU"/><use transform="matrix(0.05,0,0,0.05,85.85,0)" xlink:href="#aU"/><use transform="matrix(0.05,0,0,0.05,101.85,0)" xlink:href="#aX"/><use transform="matrix(0.05,0,0,0.05,112.80000000000001,0)" xlink:href="#aY"/><use transform="matrix(0.05,0,0,0.05,123.75,0)" xlink:href="#aN"/><use transform="matrix(0.05,0,0,0.05,133.75,0)" xlink:href="#aR"/><use transform="matrix(0.05,0,0,0.05,139.7,0)" xlink:href="#U"/><use transform="matrix(0.05,0,0,0.05,144.7,0)" xlink:href="#aX"/><use transform="matrix(0.05,0,0,0.05,155.64999999999998,0)" xlink:href="#aO"/></g><g id="K"><use transform="matrix(0.05,0,0,0.05,0,0)" xlink:href="#aC"/><use transform="matrix(0.05,0,0,0.05,10,0)" xlink:href="#aj"/><use transform="matrix(0.05,0,0,0.05,15,0)" xlink:href="#aj"/><use transform="matrix(0.05,0,0,0.05,20,0)" xlink:href="#az"/></g><path fill="#1d262b" d="M266 0h-40l-56-210L115 0H75L2-248h35L96-30l15-64 43-154h32l59 218 59-218h35" id="aZ"/><g id="L"><use transform="matrix(0.05,0,0,0.05,0,0)" xlink:href="#X"/><use transform="matrix(0.05,0,0,0.05,10,0)" xlink:href="#aF"/><use transform="matrix(0.05,0,0,0.05,19,0)" xlink:href="#ab"/><use transform="matrix(0.05,0,0,0.05,24,0)" xlink:href="#ax"/><use transform="matrix(0.05,0,0,0.05,34,0)" xlink:href="#ay"/><use transform="matrix(0.05,0,0,0.05,43,0)" xlink:href="#ay"/><use transform="matrix(0.05,0,0,0.05,52,0)" xlink:href="#ak"/><use transform="matrix(0.05,0,0,0.05,62,0)" xlink:href="#ap"/><use transform="matrix(0.05,0,0,0.05,71,0)" xlink:href="#aw"/><use transform="matrix(0.05,0,0,0.05,74.95,0)" xlink:href="#ax"/><use transform="matrix(0.05,0,0,0.05,84.95,0)" xlink:href="#aa"/><use transform="matrix(0.05,0,0,0.05,89.95,0)" xlink:href="#X"/><use transform="matrix(0.05,0,0,0.05,99.95,0)" xlink:href="#ar"/><use transform="matrix(0.05,0,0,0.05,109.95,0)" xlink:href="#aZ"/><use transform="matrix(0.05,0,0,0.05,126.9,0)" xlink:href="#aw"/><use transform="matrix(0.05,0,0,0.05,130.85,0)" xlink:href="#aa"/><use transform="matrix(0.05,0,0,0.05,135.85,0)" xlink:href="#ad"/></g><path fill="#1d262b" d="M24 0v-248h52V0H24" id="ba"/><path fill="#1d262b" d="M123 10C108 53 80 86 19 72V37c35 8 53-11 59-39L3-190h52l48 148c12-52 28-100 44-148h51" id="bb"/><g id="M"><use transform="matrix(0.05,0,0,0.05,0,0)" xlink:href="#S"/><use transform="matrix(0.05,0,0,0.05,10,0)" xlink:href="#V"/><use transform="matrix(0.05,0,0,0.05,20,0)" xlink:href="#aJ"/><use transform="matrix(0.05,0,0,0.05,25.950000000000003,0)" xlink:href="#ba"/><use transform="matrix(0.05,0,0,0.05,30.950000000000003,0)" xlink:href="#aR"/><use transform="matrix(0.05,0,0,0.05,36.9,0)" xlink:href="#U"/><use transform="matrix(0.05,0,0,0.05,41.9,0)" xlink:href="#aO"/><use transform="matrix(0.05,0,0,0.05,52.85,0)" xlink:href="#S"/><use transform="matrix(0.05,0,0,0.05,62.85,0)" xlink:href="#R"/><use transform="matrix(0.05,0,0,0.05,69.85,0)" xlink:href="#bb"/><use transform="matrix(0.05,0,0,0.05,79.85,0)" xlink:href="#ba"/><use transform="matrix(0.05,0,0,0.05,84.85,0)" xlink:href="#aR"/><use transform="matrix(0.05,0,0,0.05,90.8,0)" xlink:href="#S"/><use transform="matrix(0.05,0,0,0.05,100.8,0)" xlink:href="#aU"/></g><path fill="#1d262b" d="M33 0v-248h34V0H33" id="bc"/><path fill="#1d262b" d="M179-190L93 31C79 59 56 82 12 73V49c39 6 53-20 64-50L1-190h34L92-34l54-156h33" id="bd"/><g id="N"><use transform="matrix(0.05,0,0,0.05,0,0)" xlink:href="#X"/><use transform="matrix(0.05,0,0,0.05,10,0)" xlink:href="#aF"/><use transform="matrix(0.05,0,0,0.05,19,0)" xlink:href="#ab"/><use transform="matrix(0.05,0,0,0.05,24,0)" xlink:href="#ae"/><use transform="matrix(0.05,0,0,0.05,34,0)" xlink:href="#ai"/><use transform="matrix(0.05,0,0,0.05,37.95,0)" xlink:href="#ax"/><use transform="matrix(0.05,0,0,0.05,47.95,0)" xlink:href="#Z"/><use transform="matrix(0.05,0,0,0.05,57.95,0)" xlink:href="#ay"/><use transform="matrix(0.05,0,0,0.05,66.95,0)" xlink:href="#bc"/><use transform="matrix(0.05,0,0,0.05,71.95,0)" xlink:href="#aa"/><use transform="matrix(0.05,0,0,0.05,76.95,0)" xlink:href="#aw"/><use transform="matrix(0.05,0,0,0.05,80.9,0)" xlink:href="#Z"/><use transform="matrix(0.05,0,0,0.05,90.9,0)" xlink:href="#X"/><use transform="matrix(0.05,0,0,0.05,100.9,0)" xlink:href="#ah"/><use transform="matrix(0.05,0,0,0.05,106.85000000000001,0)" xlink:href="#bd"/><use transform="matrix(0.05,0,0,0.05,115.85000000000001,0)" xlink:href="#bc"/><use transform="matrix(0.05,0,0,0.05,120.85000000000001,0)" xlink:href="#aa"/><use transform="matrix(0.05,0,0,0.05,125.85000000000001,0)" xlink:href="#X"/><use transform="matrix(0.05,0,0,0.05,135.85000000000002,0)" xlink:href="#as"/></g><g id="O"><use transform="matrix(0.05,0,0,0.05,0,0)" xlink:href="#S"/><use transform="matrix(0.05,0,0,0.05,10,0)" xlink:href="#V"/><use transform="matrix(0.05,0,0,0.05,20,0)" xlink:href="#aJ"/><use transform="matrix(0.05,0,0,0.05,25.950000000000003,0)" xlink:href="#aS"/><use transform="matrix(0.05,0,0,0.05,37.95,0)" xlink:href="#aQ"/><use transform="matrix(0.05,0,0,0.05,47.95,0)" xlink:href="#S"/><use transform="matrix(0.05,0,0,0.05,57.95,0)" xlink:href="#aO"/><use transform="matrix(0.05,0,0,0.05,68.9,0)" xlink:href="#aR"/><use transform="matrix(0.05,0,0,0.05,74.85000000000001,0)" xlink:href="#ba"/><use transform="matrix(0.05,0,0,0.05,79.85000000000001,0)" xlink:href="#aR"/><use transform="matrix(0.05,0,0,0.05,85.80000000000001,0)" xlink:href="#S"/><use transform="matrix(0.05,0,0,0.05,95.80000000000001,0)" xlink:href="#aU"/></g><g id="P"><use transform="matrix(0.05,0,0,0.05,0,0)" xlink:href="#S"/><use transform="matrix(0.05,0,0,0.05,10,0)" xlink:href="#V"/><use transform="matrix(0.05,0,0,0.05,20,0)" xlink:href="#aJ"/><use transform="matrix(0.05,0,0,0.05,25.950000000000003,0)" xlink:href="#Q"/><use transform="matrix(0.05,0,0,0.05,37.95,0)" xlink:href="#aM"/><use transform="matrix(0.05,0,0,0.05,42.95,0)" xlink:href="#aN"/><use transform="matrix(0.05,0,0,0.05,52.95,0)" xlink:href="#aV"/><use transform="matrix(0.05,0,0,0.05,62.95,0)" xlink:href="#S"/><use transform="matrix(0.05,0,0,0.05,72.95,0)" xlink:href="#ba"/><use transform="matrix(0.05,0,0,0.05,77.95,0)" xlink:href="#aR"/><use transform="matrix(0.05,0,0,0.05,83.9,0)" xlink:href="#S"/><use transform="matrix(0.05,0,0,0.05,93.9,0)" xlink:href="#aU"/></g></defs></g></svg>